<svg width="25" height="25" viewBox="0 0 25 25" fill="none" xmlns="http://www.w3.org/2000/svg">
<path d="M9.5 0C12.0196 0 14.4359 1.00089 16.2175 2.78249C17.9991 4.56408 19 6.98044 19 9.5C19 11.582 18.33 13.507 17.195 15.073L23.561 21.439C23.8363 21.7102 23.9962 22.0772 24.0075 22.4635C24.0188 22.8498 23.8806 23.2255 23.6217 23.5124C23.3628 23.7993 23.0032 23.9752 22.6178 24.0034C22.2324 24.0317 21.851 23.9101 21.553 23.664L21.439 23.561L15.073 17.195C13.4532 18.3713 11.5019 19.0033 9.5 19C6.98044 19 4.56408 17.9991 2.78249 16.2175C1.00089 14.4359 0 12.0196 0 9.5C0 6.98044 1.00089 4.56408 2.78249 2.78249C4.56408 1.00089 6.98044 3.75443e-08 9.5 0V0ZM9.5 3C7.77609 3 6.12279 3.68482 4.90381 4.90381C3.68482 6.12279 3 7.77609 3 9.5C3 11.2239 3.68482 12.8772 4.90381 14.0962C6.12279 15.3152 7.77609 16 9.5 16C11.2239 16 12.8772 15.3152 14.0962 14.0962C15.3152 12.8772 16 11.2239 16 9.5C16 7.77609 15.3152 6.12279 14.0962 4.90381C12.8772 3.68482 11.2239 3 9.5 3V3Z" fill="black"/>
</svg>
